<svg width="60" height="60" viewBox="0 0 60 60" fill="none" xmlns="http://www.w3.org/2000/svg">
<path fill-rule="evenodd" clip-rule="evenodd" d="M17.5696 7.97645C20.8372 4.491 25.3047 2.5 30 2.5C34.6952 2.5 39.1627 4.49097 42.4303 7.97638C45.693 11.4564 47.5 16.1437 47.5 21C47.5 29.9908 49.3038 35.592 50.9759 38.8618C51.8143 40.5015 52.6307 41.5769 53.1973 42.2149C53.4813 42.5346 53.7044 42.7465 53.8386 42.8658C53.9058 42.9256 53.9509 42.9622 53.9704 42.9777C53.9735 42.9802 53.976 42.9821 53.9778 42.9835C54.8435 43.6178 55.2088 44.7356 54.8815 45.7604C54.5507 46.7966 53.5878 47.5 52.5 47.5H7.5C6.41224 47.5 5.44932 46.7966 5.11846 45.7604C4.79122 44.7356 5.15654 43.6178 6.02221 42.9835C6.02401 42.9821 6.02647 42.9802 6.02959 42.9777C6.0491 42.9622 6.09418 42.9256 6.16137 42.8658C6.29565 42.7465 6.51872 42.5346 6.80268 42.2149C7.36933 41.5769 8.18568 40.5015 9.02414 38.8618C10.6962 35.592 12.5 29.9908 12.5 21C12.5 16.1437 14.3071 11.4564 17.5696 7.97645ZM17.5 21C17.5 30.676 15.5538 37.0748 13.4759 41.1383C13.2262 41.6266 12.9752 42.0799 12.7263 42.5H47.2737C47.0248 42.0799 46.7738 41.6266 46.5241 41.1383C44.4462 37.0748 42.5 30.676 42.5 21C42.5 17.3693 41.1465 13.9174 38.7827 11.3962L38.7826 11.3961C36.4242 8.8804 33.2612 7.5 30 7.5C26.7388 7.5 23.5758 8.8804 21.2172 11.3961L21.2172 11.3962C18.8536 13.9173 17.5 17.3694 17.5 21Z" fill="black"/>
<path d="M34.325 52.5C33.8855 53.2577 33.2548 53.8867 32.4955 54.3237C31.7365 54.761 30.876 54.9912 30 54.9912C29.124 54.9912 28.2635 54.761 27.5045 54.3237C26.7455 53.8867 26.1145 53.2577 25.675 52.5" stroke="black" stroke-width="5" stroke-linecap="round" stroke-linejoin="round"/>
</svg>
