<svg width="60" height="60" viewBox="0 0 60 60" fill="none" xmlns="http://www.w3.org/2000/svg">
<path fill-rule="evenodd" clip-rule="evenodd" d="M2.5 41.25C2.5 32.2753 9.77537 25 18.75 25C27.7247 25 35 32.2753 35 41.25C35 50.2247 27.7247 57.5 18.75 57.5C16.1353 57.5 13.6593 56.8808 11.4663 55.7796L6.14509 56.7703C5.33492 56.9211 4.50246 56.663 3.91973 56.0803C3.33701 55.4975 3.0789 54.6651 3.22973 53.8549L4.22045 48.5337C3.11933 46.3407 2.5 43.8648 2.5 41.25ZM7.5 41.25C7.5 43.3033 8.04777 45.2209 9.00353 46.8732C9.30229 47.3897 9.40648 47.996 9.29727 48.5826L8.81223 51.1878L11.4174 50.7027C12.004 50.5935 12.6104 50.6977 13.1269 50.9965C14.779 51.9523 16.6967 52.5 18.75 52.5C24.9633 52.5 30 47.4633 30 41.25C30 35.0367 24.9633 30 18.75 30C12.5368 30 7.5 35.0367 7.5 41.25Z" fill="black"/>
<path fill-rule="evenodd" clip-rule="evenodd" d="M12.7311 21.7655C14.3011 10.8708 23.6708 2.5 35 2.5C47.4265 2.5 57.5 12.5736 57.5 25C57.5 28.7561 56.5776 32.3034 54.9456 35.4212L56.4578 43.5424C56.6086 44.3526 56.3505 45.185 55.7678 45.7678C55.185 46.3505 54.3526 46.6086 53.5424 46.4578L45.4212 44.9456C43.3223 46.0443 41.0277 46.8221 38.6037 47.2127C37.2405 47.4323 35.9575 46.5053 35.7378 45.1422C35.5182 43.779 36.4452 42.496 37.8083 42.2763C39.9419 41.9326 41.9459 41.2029 43.7481 40.1603C44.2646 39.8615 44.871 39.7573 45.4576 39.8665L50.8752 40.8752L49.8665 35.4576C49.7573 34.871 49.8615 34.2647 50.1602 33.7482C51.6478 31.1767 52.5 28.1915 52.5 25C52.5 15.335 44.665 7.5 35 7.5C26.1923 7.5 18.9005 14.0091 17.68 22.4787C17.483 23.8453 16.2155 24.7935 14.8489 24.5965C13.4823 24.3996 12.5341 23.1321 12.7311 21.7655Z" fill="black"/>
</svg>
