<svg width="60" height="60" viewBox="0 0 60 60" fill="none" xmlns="http://www.w3.org/2000/svg">
<path fill-rule="evenodd" clip-rule="evenodd" d="M22.5 10L17.25 17L17.25 17C15.8336 18.8885 13.6107 20 11.25 20H10C8.61929 20 7.5 21.1193 7.5 22.5V47.5C7.5 48.8808 8.61926 50 10 50H50C51.3808 50 52.5 48.8808 52.5 47.5V22.5C52.5 21.1193 51.3808 20 50 20H48.75C46.3894 20 44.1664 18.8886 42.75 17L37.5 10H22.5ZM37.2009 9.60113L37.2 9.6L37.1999 9.59992C37.2002 9.60032 37.2005 9.60073 37.2009 9.60113ZM57.5 22.5V47.5C57.5 51.6422 54.1422 55 50 55H10C5.85789 55 2.5 51.6422 2.5 47.5V22.5C2.5 18.3579 5.85786 15 10 15H11.25C12.0369 15 12.7779 14.6295 13.25 14C13.25 14 13.25 14 13.25 14L18.8 6.6C19.5554 5.59278 20.741 5 22 5H38C39.2592 5 40.4447 5.59283 41.2001 6.60008L46.75 14L44.75 15.5L46.75 14C47.2221 14.6295 47.9631 15 48.75 15H50C54.1422 15 57.5 18.3579 57.5 22.5Z" fill="black"/>
<path fill-rule="evenodd" clip-rule="evenodd" d="M17.5 32.5C17.5 25.5966 23.0964 20 30 20C36.9035 20 42.5 25.5965 42.5 32.5C42.5 39.4035 36.9035 45 30 45C23.0964 45 17.5 39.4034 17.5 32.5ZM22.5 32.5C22.5 36.6421 25.8579 40 30 40C34.142 40 37.5 36.642 37.5 32.5C37.5 28.358 34.142 25 30 25C25.8579 25 22.5 28.3579 22.5 32.5Z" fill="black"/>
</svg>
