<svg width="60" height="60" viewBox="0 0 60 60" fill="none" xmlns="http://www.w3.org/2000/svg">
<path fill-rule="evenodd" clip-rule="evenodd" d="M2.5 30C2.5 14.8122 14.8122 2.5 30 2.5C45.1877 2.5 57.5 14.8122 57.5 30C57.5 45.1877 45.1877 57.5 30 57.5C14.8122 57.5 2.5 45.1877 2.5 30ZM7.5 30C7.5 42.4263 17.5736 52.5 30 52.5C42.4263 52.5 52.5 42.4263 52.5 30C52.5 17.5736 42.4263 7.5 30 7.5C17.5736 7.5 7.5 17.5736 7.5 30Z" fill="black"/>
<path fill-rule="evenodd" clip-rule="evenodd" d="M12.6338 47.4208C11.7798 48.4945 10.2179 48.6798 9.1359 47.8324C8.04894 46.9809 7.85799 45.4096 8.7094 44.3226L10.6775 45.8642C8.7094 44.3226 8.71032 44.3215 8.71127 44.3203L8.71328 44.3177L8.71769 44.3121L8.72813 44.299L8.7555 44.2651C8.77664 44.2391 8.8036 44.2065 8.83645 44.1678C8.90216 44.0902 8.99152 43.988 9.10522 43.8646C9.33255 43.6178 9.65761 43.2861 10.0859 42.8987C10.9425 42.1238 12.2136 41.1245 13.942 40.1366C17.4149 38.1517 22.6709 36.25 30 36.25C37.3291 36.25 42.5852 38.1517 46.0581 40.1366C47.7866 41.1245 49.0577 42.1238 49.9143 42.8987C50.3426 43.2861 50.6677 43.6178 50.895 43.8645C51.0087 43.9879 51.0981 44.0902 51.1638 44.1677C51.1966 44.2065 51.2236 44.2391 51.2447 44.265L51.2721 44.2989L51.2826 44.3121L51.287 44.3177L51.289 44.3202C51.2899 44.3214 51.2908 44.3226 49.3603 45.8348L51.2908 44.3226C52.1423 45.4095 51.9513 46.9809 50.8644 47.8323C49.7824 48.6798 48.2205 48.4946 47.3664 47.4208C47.3639 47.4177 47.3584 47.411 47.3498 47.401C47.3272 47.3743 47.2834 47.3237 47.2179 47.2526C47.0868 47.1103 46.869 46.8861 46.56 46.6066C45.9421 46.0476 44.9606 45.2683 43.5771 44.4776C40.8262 42.9054 36.4209 41.25 30 41.25C23.5791 41.25 19.1739 42.9054 16.4231 44.4776C15.0396 45.2683 14.0581 46.0476 13.4402 46.6066C13.1312 46.8861 12.9135 47.1102 12.7824 47.2525C12.7169 47.3237 12.6731 47.3742 12.6504 47.4009C12.6419 47.4111 12.6363 47.4177 12.6338 47.4208Z" fill="black"/>
<path fill-rule="evenodd" clip-rule="evenodd" d="M20 22.5C20 16.9772 24.477 12.5 30 12.5C35.523 12.5 40 16.9772 40 22.5C40 28.023 35.523 32.5 30 32.5C24.477 32.5 20 28.023 20 22.5ZM25 22.5C25 25.2615 27.2385 27.5 30 27.5C32.7615 27.5 35 25.2615 35 22.5C35 19.7386 32.7615 17.5 30 17.5C27.2385 17.5 25 19.7386 25 22.5Z" fill="black"/>
</svg>
