<svg width="60" height="60" viewBox="0 0 60 60" fill="none" xmlns="http://www.w3.org/2000/svg">
<path fill-rule="evenodd" clip-rule="evenodd" d="M4.25 30C4.25 15.7787 15.7787 4.25 30 4.25C44.2212 4.25 55.75 15.7787 55.75 30C55.75 44.2212 44.2212 55.75 30 55.75C15.7787 55.75 4.25 44.2212 4.25 30ZM5.75 30C5.75 43.3928 16.6071 54.25 30 54.25C43.3928 54.25 54.25 43.3928 54.25 30C54.25 16.6071 43.3928 5.75 30 5.75C16.6071 5.75 5.75 16.6071 5.75 30Z" fill="black" stroke="black" stroke-width="2" stroke-linecap="round" stroke-linejoin="round"/>
<path fill-rule="evenodd" clip-rule="evenodd" d="M3.75 30C3.75 15.5025 15.5025 3.75 30 3.75C44.4974 3.75 56.25 15.5025 56.25 30C56.25 44.4974 44.4974 56.25 30 56.25C15.5025 56.25 3.75 44.4974 3.75 30ZM4.75 30C4.75 43.9451 16.0548 55.25 30 55.25C43.9451 55.25 55.25 43.9451 55.25 30C55.25 16.0548 43.9451 4.75 30 4.75C16.0548 4.75 4.75 16.0548 4.75 30ZM30 6.25C16.8832 6.25 6.25 16.8832 6.25 30C6.25 43.1166 16.8832 53.75 30 53.75C43.1166 53.75 53.75 43.1166 53.75 30C53.75 16.8832 43.1166 6.25 30 6.25ZM54.75 30C54.75 16.3309 43.6689 5.25 30 5.25C16.3309 5.25 5.25 16.3309 5.25 30C5.25 43.6689 16.3309 54.75 30 54.75C43.6689 54.75 54.75 43.6689 54.75 30Z" fill="black" stroke="black" stroke-linecap="round" stroke-linejoin="round"/>
<path fill-rule="evenodd" clip-rule="evenodd" d="M11.2675 46.3273L11.2754 46.3175C11.2833 46.3078 11.2967 46.2916 11.3155 46.2693C11.3532 46.2248 11.413 46.1562 11.4954 46.0668C11.6602 45.8879 11.9155 45.6261 12.2662 45.3088C12.9677 44.6743 14.0505 43.818 15.5547 42.9583C18.5583 41.2416 23.2613 39.5 30 39.5C36.7388 39.5 41.4418 41.2416 44.4455 42.9583C45.9497 43.818 47.0325 44.6743 47.734 45.3088C48.0848 45.6261 48.3401 45.8879 48.5049 46.0668C48.5873 46.1562 48.647 46.2249 48.6847 46.2693C48.7036 46.2916 48.7169 46.3078 48.7248 46.3175L48.7323 46.3267C48.7324 46.3268 48.7329 46.3275 48.733 46.3275C48.7328 46.3274 48.7331 46.3277 48.733 46.3275C48.9886 46.6525 49.4596 46.7098 49.7852 46.4547C50.1113 46.1992 50.1686 45.7278 49.9132 45.4018L49.3228 45.8642C49.9132 45.4018 49.9135 45.4022 49.9132 45.4018L49.9118 45.4L49.91 45.3977L49.9047 45.391L49.8879 45.3702C49.8738 45.353 49.8542 45.3292 49.8289 45.2994C49.7783 45.2396 49.7049 45.1555 49.608 45.0504C49.4143 44.8402 49.1268 44.5461 48.7403 44.1965C47.9672 43.4971 46.7975 42.5748 45.1898 41.656C41.9695 39.8155 37.0112 38 30 38C22.9888 38 18.0305 39.8155 14.8104 41.656C13.2027 42.5748 12.033 43.4971 11.2599 44.1965C10.8734 44.5461 10.5859 44.8402 10.3922 45.0504C10.2954 45.1555 10.222 45.2396 10.1713 45.2994C10.146 45.3292 10.1264 45.353 10.1124 45.3702L10.0955 45.3911L10.0903 45.3977L10.0884 45.4001L10.0877 45.401C10.0874 45.4014 10.0871 45.4018 10.6577 45.8487L10.0877 45.401C9.83225 45.7271 9.88893 46.1993 10.215 46.4547C10.5409 46.7099 11.0119 46.6529 11.2675 46.3273Z" fill="black"/>
<path d="M11.2675 46.3273C11.2669 46.328 11.2668 46.3281 11.2668 46.3282M11.2675 46.3273L11.2754 46.3175C11.2833 46.3078 11.2967 46.2916 11.3155 46.2693C11.3532 46.2248 11.413 46.1562 11.4954 46.0668C11.6602 45.8879 11.9155 45.6261 12.2662 45.3088C12.9677 44.6743 14.0505 43.818 15.5547 42.9583C18.5583 41.2416 23.2613 39.5 30 39.5C36.7388 39.5 41.4418 41.2416 44.4455 42.9583C45.9497 43.818 47.0325 44.6743 47.734 45.3088C48.0848 45.6261 48.3401 45.8879 48.5049 46.0668C48.5873 46.1562 48.647 46.2249 48.6847 46.2693C48.7036 46.2916 48.7169 46.3078 48.7248 46.3175L48.7323 46.3267C48.7324 46.3268 48.7329 46.3275 48.733 46.3275M11.2675 46.3273C11.0119 46.6529 10.5409 46.7099 10.215 46.4547C9.88893 46.1993 9.83225 45.7271 10.0877 45.401M48.733 46.3275C48.7331 46.3277 48.7328 46.3274 48.733 46.3275ZM48.733 46.3275C48.9886 46.6525 49.4596 46.7098 49.7852 46.4547C50.1113 46.1992 50.1686 45.7278 49.9132 45.4018M49.9132 45.4018L49.3228 45.8642C49.9132 45.4018 49.9135 45.4022 49.9132 45.4018ZM49.9132 45.4018L49.9118 45.4L49.91 45.3977L49.9047 45.391L49.8879 45.3702C49.8738 45.353 49.8542 45.3292 49.8289 45.2994C49.7783 45.2396 49.7049 45.1555 49.608 45.0504C49.4143 44.8402 49.1268 44.5461 48.7403 44.1965C47.9672 43.4971 46.7975 42.5748 45.1898 41.656C41.9695 39.8155 37.0112 38 30 38C22.9888 38 18.0305 39.8155 14.8104 41.656C13.2027 42.5748 12.033 43.4971 11.2599 44.1965C10.8734 44.5461 10.5859 44.8402 10.3922 45.0504C10.2954 45.1555 10.222 45.2396 10.1713 45.2994C10.146 45.3292 10.1264 45.353 10.1124 45.3702L10.0955 45.3911L10.0903 45.3977L10.0884 45.4001L10.0877 45.401M10.0877 45.401C10.0874 45.4014 10.0871 45.4018 10.6577 45.8487L10.0877 45.401Z" stroke="black" stroke-width="2" stroke-linecap="round" stroke-linejoin="round"/>
<path fill-rule="evenodd" clip-rule="evenodd" d="M21.75 22.5C21.75 17.9437 25.4435 14.25 30 14.25C34.5565 14.25 38.25 17.9437 38.25 22.5C38.25 27.0565 34.5565 30.75 30 30.75C25.4435 30.75 21.75 27.0565 21.75 22.5ZM23.25 22.5C23.25 26.228 26.272 29.25 30 29.25C33.728 29.25 36.75 26.228 36.75 22.5C36.75 18.7721 33.728 15.75 30 15.75C26.272 15.75 23.25 18.7721 23.25 22.5Z" fill="black" stroke="black" stroke-width="2" stroke-linecap="round" stroke-linejoin="round"/>
<path fill-rule="evenodd" clip-rule="evenodd" d="M21.25 22.5C21.25 17.6675 25.1674 13.75 30 13.75C34.8326 13.75 38.75 17.6675 38.75 22.5C38.75 27.3326 34.8326 31.25 30 31.25C25.1674 31.25 21.25 27.3326 21.25 22.5ZM22.25 22.5C22.25 26.7803 25.7197 30.25 30 30.25C34.2803 30.25 37.75 26.7803 37.75 22.5C37.75 18.2198 34.2803 14.75 30 14.75C25.7197 14.75 22.25 18.2198 22.25 22.5ZM30 16.25C26.5481 16.25 23.75 19.0482 23.75 22.5C23.75 25.9519 26.5481 28.75 30 28.75C33.4519 28.75 36.25 25.9519 36.25 22.5C36.25 19.0482 33.4519 16.25 30 16.25ZM37.25 22.5C37.25 18.4959 34.0042 15.25 30 15.25C25.9958 15.25 22.75 18.4959 22.75 22.5C22.75 26.5042 25.9958 29.75 30 29.75C34.0042 29.75 37.25 26.5042 37.25 22.5Z" fill="black" stroke="black" stroke-linecap="round" stroke-linejoin="round"/>
</svg>
