<svg width="60" height="60" viewBox="0 0 60 60" fill="none" xmlns="http://www.w3.org/2000/svg">
<path fill-rule="evenodd" clip-rule="evenodd" d="M12.5 15C12.5 9.47716 16.9772 5 22.5 5H47.5C53.023 5 57.5 9.47719 57.5 15V35C57.5 36.3807 56.3807 37.5 55 37.5C53.6193 37.5 52.5 36.3807 52.5 35V15C52.5 12.2386 50.2615 10 47.5 10H22.5C19.7386 10 17.5 12.2386 17.5 15V32.5C17.5 33.8807 16.3807 35 15 35C13.6193 35 12.5 33.8807 12.5 32.5V15Z" fill="black"/>
<path fill-rule="evenodd" clip-rule="evenodd" d="M15 35C10.8579 35 7.5 38.3579 7.5 42.5C7.5 46.6421 10.8579 50 15 50H30C31.3807 50 32.5 51.1193 32.5 52.5C32.5 53.8807 31.3807 55 30 55H15C8.09642 55 2.5 49.4034 2.5 42.5C2.5 35.5966 8.09642 30 15 30H45C46.3807 30 47.5 31.1193 47.5 32.5C47.5 33.8807 46.3807 35 45 35C40.858 35 37.5 38.358 37.5 42.5C37.5 46.642 40.858 50 45 50C49.142 50 52.5 46.642 52.5 42.5V35C52.5 33.6193 53.6193 32.5 55 32.5C56.3807 32.5 57.5 33.6193 57.5 35V42.5C57.5 49.4035 51.9035 55 45 55C38.0965 55 32.5 49.4035 32.5 42.5C32.5 39.686 33.4299 37.0892 34.9991 35H15Z" fill="black"/>
</svg>
