<svg width="60" height="60" viewBox="0 0 60 60" fill="none" xmlns="http://www.w3.org/2000/svg">
<path fill-rule="evenodd" clip-rule="evenodd" d="M20 32.5C11.7157 32.5 5 39.2157 5 47.5V50C5 51.3807 3.88071 52.5 2.5 52.5C1.11929 52.5 0 51.3807 0 50V47.5C0 36.4543 8.95432 27.5 20 27.5C31.0457 27.5 40 36.4543 40 47.5V50C40 51.3807 38.8807 52.5 37.5 52.5C36.1193 52.5 35 51.3807 35 50V47.5C35 39.2157 28.2843 32.5 20 32.5Z" fill="black"/>
<path fill-rule="evenodd" clip-rule="evenodd" d="M45 25C39.4772 25 35 29.4772 35 35C35 36.3807 33.8807 37.5 32.5 37.5C31.1193 37.5 30 36.3807 30 35C30 26.7158 36.7158 20 45 20C53.2842 20 60 26.7158 60 35V36.25C60 37.6307 58.8807 38.75 57.5 38.75C56.1193 38.75 55 37.6307 55 36.25V35C55 29.4772 50.5228 25 45 25Z" fill="black"/>
<path fill-rule="evenodd" clip-rule="evenodd" d="M7.5 20C7.5 13.0964 13.0964 7.5 20 7.5C26.9034 7.5 32.5 13.0964 32.5 20C32.5 26.9035 26.9035 32.5 20 32.5C13.0964 32.5 7.5 26.9034 7.5 20ZM12.5 20C12.5 24.1421 15.8579 27.5 20 27.5C24.142 27.5 27.5 24.142 27.5 20C27.5 15.8579 24.1421 12.5 20 12.5C15.8579 12.5 12.5 15.8579 12.5 20Z" fill="black"/>
<path fill-rule="evenodd" clip-rule="evenodd" d="M35 15C35 9.47719 39.477 5 45 5C50.523 5 55 9.47719 55 15C55 20.5228 50.523 25 45 25C39.477 25 35 20.5228 35 15ZM40 15C40 17.7614 42.2385 20 45 20C47.7615 20 50 17.7614 50 15C50 12.2386 47.7615 10 45 10C42.2385 10 40 12.2386 40 15Z" fill="black"/>
</svg>
