<svg id="Слой_1" data-name="Слой 1" xmlns="http://www.w3.org/2000/svg" viewBox="0 0 56 56">
  <path d="M43.74951,55.0686H39.561a7.95707,7.95707,0,0,1-7.94825-7.94824V37.87915a2.90148,2.90148,0,0,0-2.89843-2.89844H27.28564a2.90148,2.90148,0,0,0-2.89843,2.89844v9.24121A7.95707,7.95707,0,0,1,16.439,55.0686H12.25049a7.95791,7.95791,0,0,1-7.94922-7.94824V24.62769a7.89019,7.89019,0,0,1,2.332-5.62207q6.19336-6.18239,12.374-12.37256L22.37744,3.26A7.89789,7.89789,0,0,1,27.99951.9314h.00293a7.90321,7.90321,0,0,1,5.623,2.33007q7.88232,7.88379,15.749,15.76172a7.9,7.9,0,0,1,2.32422,5.61719v22.48A7.95791,7.95791,0,0,1,43.74951,55.0686ZM27.28564,29.93091h1.42872a7.9579,7.9579,0,0,1,7.94921,7.94824v9.24121A2.90128,2.90128,0,0,0,39.561,50.0188h4.18847A2.90149,2.90149,0,0,0,46.648,47.12036v-22.48a2.91938,2.91938,0,0,0-.84766-2.04932Q37.93263,14.70729,30.05518,6.83228a2.89045,2.89045,0,0,0-2.05469-.85108h-.001a2.8773,2.8773,0,0,0-2.0498.84912l-3.37012,3.37256q-6.18457,6.189-12.37793,12.377a2.87414,2.87414,0,0,0-.84961,2.04786V47.12036a2.90149,2.90149,0,0,0,2.89844,2.89844H16.439a2.90128,2.90128,0,0,0,2.89747-2.89844V37.87915A7.9579,7.9579,0,0,1,27.28564,29.93091Z"/>
</svg>
