<svg width="56" height="56" viewBox="0 0 56 56" fill="none" xmlns="http://www.w3.org/2000/svg">
<path fill-rule="evenodd" clip-rule="evenodd" d="M0.5 28C0.5 12.8122 12.8122 0.5 28 0.5C43.1877 0.5 55.5 12.8122 55.5 28C55.5 43.1877 43.1877 55.5 28 55.5C23.3317 55.5 18.9288 54.3347 15.0731 52.2779L4.70758 54.2078C3.89741 54.3586 3.06495 54.1005 2.48223 53.5178C1.89951 52.935 1.6414 52.1026 1.79223 51.2924L3.7221 40.9269C1.66525 37.0712 0.5 32.6683 0.5 28ZM5.5 28C5.5 32.1023 6.59562 35.9412 8.50858 39.2482C8.80734 39.7647 8.91153 40.371 8.80231 40.9576L7.37473 48.6253L15.0424 47.1977C15.629 47.0885 16.2353 47.1927 16.7518 47.4915C20.0587 49.4043 23.8977 50.5 28 50.5C40.4263 50.5 50.5 40.4263 50.5 28C50.5 15.5736 40.4263 5.5 28 5.5C15.5736 5.5 5.5 15.5736 5.5 28Z" fill="black"/>
</svg>
