<svg width="60" height="60" viewBox="0 0 60 60" fill="none" xmlns="http://www.w3.org/2000/svg">
<path fill-rule="evenodd" clip-rule="evenodd" d="M36.8602 2.69176C38.135 3.22208 38.7386 4.68542 38.2082 5.96022L35.6082 12.2102C35.0779 13.485 33.6146 14.0886 32.3398 13.5582C31.065 13.0279 30.4614 11.5646 30.9918 10.2898L33.5918 4.03977C34.1221 2.76496 35.5854 2.16144 36.8602 2.69176ZM46.0097 2.71295C47.2728 3.27057 47.8447 4.74655 47.287 6.00966L38.9276 24.9453C44.0602 27.9956 47.5 33.5961 47.5 40C47.5 49.665 39.665 57.5 30 57.5C20.335 57.5 12.5 49.665 12.5 40C12.5 34.0456 15.4738 28.7858 20.0172 25.6247L10.2639 6.11802C9.64646 4.88308 10.147 3.3814 11.382 2.76393C12.6169 2.14646 14.1186 2.64702 14.7361 3.88197L24.4879 23.3858C25.5828 23.0227 26.7257 22.7648 27.9045 22.6242L19.8407 6.09621C19.2352 4.85531 19.7504 3.35858 20.9913 2.75315C22.2322 2.14773 23.7289 2.66288 24.3343 3.90378L33.5868 22.8679C33.8284 22.9182 34.0681 22.9735 34.3059 23.0337L42.713 3.99034C43.2706 2.72724 44.7466 2.15533 46.0097 2.71295ZM31.5707 27.5977C31.0562 27.5332 30.532 27.5 30 27.5C23.0964 27.5 17.5 33.0965 17.5 40C17.5 46.9035 23.0964 52.5 30 52.5C36.9035 52.5 42.5 46.9035 42.5 40C42.5 33.6424 37.7537 28.3934 31.6113 27.6029C31.5977 27.6013 31.5842 27.5996 31.5707 27.5977Z" fill="black"/>
</svg>
