<svg width="65" height="64" viewBox="0 0 65 64" fill="none" xmlns="http://www.w3.org/2000/svg">
<path fill-rule="evenodd" clip-rule="evenodd" d="M54.2953 4.78883C57.0351 3.72285 59.9031 6.02838 59.2831 8.79843L48.5638 56.6904C47.8303 59.9677 43.1882 60.5114 41.6522 57.4994L30.8804 36.3751L7.29549 29.8799C3.93267 28.9538 3.68531 24.48 6.92707 23.2186L54.2953 4.78883ZM53.3061 2.45521L5.93784 20.885C0.382574 23.0465 0.806331 30.7136 6.56918 32.3006L29.0311 38.4865L39.29 58.605C41.9221 63.7663 49.8773 62.8352 51.1344 57.2185L61.8537 9.32652C62.9162 4.57942 58.0013 0.628426 53.3061 2.45521Z" fill="black"/>
<path d="M59.2831 8.79843C59.9031 6.02838 57.0351 3.72285 54.2953 4.78883L6.92707 23.2186C3.68531 24.48 3.93267 28.9538 7.29549 29.8799L30.8804 36.3751L41.6522 57.4994M59.2831 8.79843L60.5684 9.06247M59.2831 8.79843L48.5638 56.6904C47.8303 59.9677 43.1882 60.5114 41.6522 57.4994M41.6522 57.4994L40.4711 58.0522M53.8007 3.62202L53.3061 2.45521M53.3061 2.45521L5.93784 20.885M53.3061 2.45521C58.0013 0.628426 62.9162 4.57942 61.8537 9.32652L51.1344 57.2185C49.8773 62.8352 41.9221 63.7663 39.29 58.605M5.93784 20.885L6.42179 22.0267M5.93784 20.885C0.382574 23.0465 0.806331 30.7136 6.56918 32.3006L29.0311 38.4865L39.29 58.605M39.29 58.605L40.3657 58.1016" stroke="black" stroke-width="4"/>
</svg>
