<svg xmlns="http://www.w3.org/2000/svg" viewBox="0 0 244.69865 267.17679">
  <defs>
    <style>
      .cls-1 {
        fill: #fff;
      }
    </style>
  </defs>
  <g id="Слой_2" data-name="Слой 2">
    <g id="лого">
      <g>
        <path class="cls-1" d="M212.60823,248.2626l-.00007.00005L10.11368,72.69118a44.58233,44.58233,0,0,1,5.99665-62.57743l.00006,0a44.58235,44.58235,0,0,1,62.57745,5.9966Q145.648,132.18648,212.60823,248.2626Z"/>
        <path class="cls-1" d="M179.79811,267.17676l0,0L61.6965,230.22439a20.58489,20.58489,0,0,1-9.00746-27.5931l0,0a20.58489,20.58489,0,0,1,27.5931-9.00748Q130.04013,230.40029,179.79811,267.17676Z"/>
        <path class="cls-1" d="M244.69865,229.29444l0,0q-44.66468-80.74639-89.32935-161.49275a30.69953,30.69953,0,0,1,18.703-39.03955l0,0a30.69954,30.69954,0,0,1,39.03957,18.70294Q228.90524,138.37978,244.69865,229.29444Z"/>
      </g>
    </g>
  </g>
</svg>
