<?xml version="1.0" encoding="utf-8"?>
<!-- Generator: Adobe Illustrator 26.0.0, SVG Export Plug-In . SVG Version: 6.00 Build 0)  -->
<svg version="1.1" id="Слой_1" xmlns="http://www.w3.org/2000/svg" xmlns:xlink="http://www.w3.org/1999/xlink" x="0px" y="0px"
	 viewBox="0 0 60 59.9" style="enable-background:new 0 0 60 59.9;" xml:space="preserve">
<g>
	<path d="M3.9,17.5c0.3,0,0.6,0,1,0.2c1.1,0.4,1.6,1.7,1.1,2.7c-1,2.5-1.6,5.1-1.8,7.8c-0.1,1.2-1,2-2.2,2c-1.2-0.1-2-1-2-2.2
		c0.2-3.2,0.9-6.3,2.1-9.2C2.4,18.1,3.1,17.6,3.9,17.5z M2.9,34.7c1-0.1,1.9,0.6,2.2,1.5c0.7,2.6,1.8,5.1,3.3,7.4
		c0.6,1,0.3,2.3-0.7,2.9c-1,0.6-2.3,0.3-2.9-0.7c-1.7-2.7-3-5.5-3.8-8.6c-0.3-1.1,0.4-2.3,1.5-2.6C2.6,34.8,2.8,34.7,2.9,34.7z
		 M12.1,49.3c0.5,0,1.1,0.1,1.5,0.5c2.1,1.8,4.4,3.2,6.9,4.2c1.1,0.4,1.6,1.7,1.1,2.7c-0.4,1.1-1.7,1.6-2.7,1.1
		c-2.9-1.2-5.6-2.8-8-4.9c-0.9-0.8-1-2.1-0.2-3C11.1,49.6,11.6,49.4,12.1,49.3z"/>
	<path d="M30,43.3c-1.2,0-2.1-0.9-2.1-2.1v-9.1h-9.1c-1.2,0-2.1-0.9-2.1-2.1s0.9-2.1,2.1-2.1h9.1v-9.1c0-1.2,0.9-2.1,2.1-2.1
		c1.2,0,2.1,0.9,2.1,2.1v9.1h9.1c1.2,0,2.1,0.9,2.1,2.1s-0.9,2.1-2.1,2.1h-9.1v9.1C32.1,42.3,31.1,43.3,30,43.3z"/>
	<path d="M30,60h-0.4c-1.1,0-2.1-0.9-2.1-2.1c0-1.1,1-2.1,2.1-2.1c0.2,0,0.3,0,0.4,0c6.2,0,12.2-2.3,16.9-6.3
		c5.6-4.9,8.9-12,8.9-19.5c0-6.2-2.3-12.2-6.3-16.9c-4.9-5.6-12-8.9-19.5-8.9c-6.2,0-12.2,2.3-17,6.4c-0.8,0.6-1.5,1.3-2.1,2
		c-0.8,0.8-2.2,0.9-3,0.1c-0.4-0.4-0.7-0.9-0.7-1.6c0-0.5,0.2-1,0.5-1.4c0,0,0,0,0,0c0,0,0.1-0.1,0.1-0.1c0.8-0.8,1.5-1.6,2.3-2.3
		C15.7,2.6,22.7,0,30,0c8.7,0,17,3.8,22.7,10.3C57.4,15.8,60,22.8,60,30c0,8.7-3.8,16.9-10.3,22.7C44.2,57.4,37.2,60,30,60z"/>
</g>
</svg>
